<svg xmlns="http://www.w3.org/2000/svg" width="24" height="24" viewBox="0 0 24 24" fill="none" stroke="currentColor" stroke-width="1.8" stroke-linecap="round" stroke-linejoin="round" aria-hidden="true">

    <path d="M21 16.2v2.8a2 2 0 0 1-2.2 2
             16.8 16.8 0 0 1-7.3-2.6
             16.4 16.4 0 0 1-5-5
             16.8 16.8 0 0 1-2.6-7.3
             A2 2 0 0 1 5.9 4H8.7
             a2 2 0 0 1 2 1.7
             l.4 2.6
             a2 2 0 0 1-.6 1.8
             l-1.2 1.2
             a13.5 13.5 0 0 0 3.7 3.7
             l1.2-1.2
             a2 2 0 0 1 1.8-.6
             l2.6.4
             a2 2 0 0 1 1.7 2z"></path>

</svg>